# xmcd
#
# Track frame offsets: 
#        150
#        13663
#        32628
#        51991
#        72511
#        94398
#        108138
#        126815
#        144015
#        162348
#
# Disc length: 2533 seconds
#
# Revision: 0
# Processed by: cddbd v1.5.2PL0 Copyright (c) Steve Scherf et al.
# Submitted via: ExactAudioCopy v0.99pb5
#
DISCID=8309e30a
DTITLE=Trish - One Foot in Front of the Other
DYEAR=1900
DGENRE=
TTITLE0=One Foot in Front of the Other
TTITLE1=Walkin' in Memphis
TTITLE2=Maybe
TTITLE3=Walkin' in the Sun
TTITLE4=Take Away My Grief
TTITLE5=California Dreamin'
TTITLE6=Black Heart
TTITLE7=Trouble
TTITLE8=Dreams
TTITLE9=Save Me
EXTD=
EXTT0=
EXTT1=
EXTT2=
EXTT3=
EXTT4=
EXTT5=
EXTT6=
EXTT7=
EXTT8=
EXTT9=
PLAYORDER=
